<svg xmlns="http://www.w3.org/2000/svg" width="252.86" height="246.7" viewBox="0 0 252.86 246.7">
  <g id="obj" transform="translate(0 0.018)">
    <path id="Path_70" data-name="Path 70" d="M-16.74,280.308c5.563-6.723,9.441-14.552,7.153-23.5-.93-3.688-1.828-6.755.469-10.141a28.1,28.1,0,0,0,3.179-4.824c2.209-5.166,0-10.332-2.384-14.973-1.788-3.409-3.7-6.859-4.546-10.657-.9-4.013-.048-8.1-.532-12.151-.469-3.918-2.75-8.154-6.644-8.814-2.591-.445-5.206.85-7.1,2.654a14.2,14.2,0,0,0-4.18,7.836c-.683,4.061.405,8.44-1.216,12.231-1.431,3.338-4.681,5.5-6.787,8.464a14.377,14.377,0,0,0-2.344,11.015c.636,3.179,2.337,6.024,2.837,9.2,1.144,7.153-3.886,14.146-2.933,21.315A15.648,15.648,0,0,0-35.186,278.3c3.878,2.774,9.473,4.768,14.258,3.823a9.537,9.537,0,0,0,6.358-4.164" transform="translate(236.365 -84.751)" fill="#deddf2"/>
    <path id="Path_71" data-name="Path 71" d="M-32.247,282.571a9.29,9.29,0,0,0,0-4.57c-1.343-4.18-5.357-7.01-8.194-10.125-3.378-3.711-5.841-8.48-5.873-13.51,0-4.077-.922-7.5-3.767-10.594s-6.326-5.293-9.267-8.154a63.577,63.577,0,0,1-8.273-9.855c-2.05-3.028-5.9-7.566-8.869-2.535a9.338,9.338,0,0,0-1.065,6.692c1.311,5.945,6.755,9.823,9.068,15.307,1.168,2.766,1.319,5.722,1.589,8.678.278,2.646.795,5.611,2.67,7.621,1.1,1.168,2.511,2.042,3.5,3.306,1.4,1.756,1.8,3.974,2.281,6.135a32.585,32.585,0,0,0,2.384,6.477c2.44,5.333,6.048,11.532,11.651,13.94a8.154,8.154,0,0,0,5.206.628C-35.378,290.979-33,286.163-32.247,282.571Z" transform="translate(243.718 -90.05)" fill="#deddf2"/>
    <path id="Path_72" data-name="Path 72" d="M-58.7,264.44" transform="translate(239.804 -98.972)" fill="none" stroke="#187a87" stroke-linecap="round" stroke-miterlimit="10" stroke-width="1.33"/>
    <path id="Path_73" data-name="Path 73" d="M-31.308,236.124a.532.532,0,0,1,.739.143l8.369,12.382,1.86-32.226a.548.548,0,0,1,.564-.493.524.524,0,0,1,.362.176.524.524,0,0,1,.131.38l-1.359,23.532,10.332-5.674a.54.54,0,0,1,.723.207.532.532,0,0,1-.207.723l-10.792,5.937H-20.7l-1.256,21.72,8.329-4.172a.525.525,0,0,1,.4-.032.525.525,0,0,1,.306.262.532.532,0,0,1-.23.715l-8.869,4.482-1.017,17.6a.524.524,0,0,1-.5.493h-.056a.524.524,0,0,1-.367-.173.524.524,0,0,1-.134-.383L-22.28,250.4l-9.147-13.51a.54.54,0,0,1-.1-.407.54.54,0,0,1,.22-.356Z" transform="translate(234.228 -89.015)" fill="#ceceea"/>
    <path id="Path_74" data-name="Path 74" d="M-3.017,245.152c1.709-4.554,2.726-7.892,3.243-9.7-.795-3.974-2.042-14.21,5.563-15.736,4.093,2.162,5.349,9.879-3.5,16.157-.564,2-1.764,5.945-3.862,11.389,6.31-9.378,14.48-8.353,16.968-4.109-1.446,9.235-15.235,7.033-17.921,6.517-1.184,2.948-2.607,6.263-4.3,9.879,6.628-6.763,13.685-5.023,15.656-.914-2.042,8.48-14,6.159-17.731,5.213-1.637,3.306-3.489,6.827-5.563,10.522,8.6-8.074,17.1-5.4,19.129-.278-3.179,10.03-17.619,5.9-21.6,4.554a254.008,254.008,0,0,1-24.47,34.4L-43,311.711a252.725,252.725,0,0,0,24.422-34.42c-4.546-2.686-15.028-10.053-10.181-18.462,5.126-1.947,12.763,2.472,12.716,14.091q2.758-4.935,4.983-9.418c-3.529-2.074-11.865-7.868-8.035-14.5,3.974-1.5,9.791,1.828,9.926,10.6,1.963-4.141,3.576-7.884,4.88-11.126-3.02-1.685-12.716-7.8-8.647-14.854C-8.826,232.046-2.731,235.67-3.017,245.152Z" transform="translate(236.581 -89.793)" fill="#ceceea"/>
    <path id="Path_75" data-name="Path 75" d="M-57.427,265.513a.524.524,0,0,1,.322-.247.525.525,0,0,1,.4.056l9.473,5.563-8.957-19.439a.525.525,0,0,1-.015-.4.525.525,0,0,1,.277-.295.525.525,0,0,1,.4-.018.525.525,0,0,1,.3.273l6.549,14.218.691-12.032a.54.54,0,0,1,.564-.5.532.532,0,0,1,.493.564l-.795,13.661a.572.572,0,0,1-.079.23l8.543,18.549,1.788-7.224a.532.532,0,0,1,.644-.381.532.532,0,0,1,.389.636l-2,8.082a.556.556,0,0,1-.183.278l1.629,3.529a.525.525,0,0,1,.015.4.524.524,0,0,1-.277.295.421.421,0,0,1-.191.048.524.524,0,0,1-.509-.31L-46.523,272.4a.5.5,0,0,1-.278-.072l-10.443-6.1a.532.532,0,0,1-.183-.707Z" transform="translate(239.556 -96.151)" fill="#ceceea"/>
    <path id="Path_76" data-name="Path 76" d="M-12.719,293.04a6.437,6.437,0,0,1,.318-3.179c1.208-2.805,4.172-4.5,6.358-6.469a14.576,14.576,0,0,0,4.967-8.949,10.2,10.2,0,0,1,3.314-7.081c2.178-1.955,4.673-3.211,6.93-5.023a44.713,44.713,0,0,0,6.406-6.278c1.589-1.963,4.586-4.848,6.3-1.168a6.469,6.469,0,0,1,.294,4.7c-1.3,4.029-5.333,6.358-7.3,9.99a20.506,20.506,0,0,0-1.7,5.9c-.366,1.82-.906,3.839-2.384,5.1-.842.739-1.868,1.248-2.646,2.058a10.191,10.191,0,0,0-1.987,4.093A22.705,22.705,0,0,1,4.1,291.061c-2.027,3.529-4.935,7.582-8.973,8.853A5.682,5.682,0,0,1-8.523,300C-11.114,299.072-12.441,295.567-12.719,293.04Z" transform="translate(230.381 -96.649)" fill="#deddf2"/>
    <path id="Path_77" data-name="Path 77" d="M15,282.16" transform="translate(224.676 -102.609)" fill="none" stroke="#000" stroke-miterlimit="10" stroke-width="1.85"/>
    <path id="Path_78" data-name="Path 78" d="M-6.37,298.641l1.3-2.241a.675.675,0,0,1-.072-.191l-.842-5.73a.517.517,0,0,1,.1-.393.517.517,0,0,1,.349-.2.509.509,0,0,1,.395.093.509.509,0,0,1,.2.352l.691,4.665,6.9-11.842a.858.858,0,0,1,0-.151l.366-9.537a.525.525,0,0,1,.548-.517.54.54,0,0,1,.509.556l-.294,7.725,5.15-8.845a.533.533,0,0,1,.723-.191.525.525,0,0,1,.191.723L2.571,285.392l6.437-3a.54.54,0,0,1,.707.262.525.525,0,0,1-.262.7l-7.6,3.537a.47.47,0,0,1-.175.04l-7.153,12.239a.524.524,0,0,1-.429.262.493.493,0,0,1-.294-.072.525.525,0,0,1-.238-.325.525.525,0,0,1,.063-.4Z" transform="translate(229.078 -100.549)" fill="#ceceea"/>
    <path id="Path_79" data-name="Path 79" d="M-78.78,202.417H-159V160.3a40.166,40.166,0,0,1,40.118-40.126A40.174,40.174,0,0,1-78.756,160.3Zm-66.869-13.375h53.494V160.272a26.783,26.783,0,0,0-26.751-26.727A26.775,26.775,0,0,0-145.648,160.3Z" transform="translate(260.392 -69.358)" fill="#0b3939"/>
    <rect id="Rectangle_8" data-name="Rectangle 8" width="34.174" height="37.885" transform="translate(123.979 131.851)" fill="#0b3939"/>
    <path id="Path_80" data-name="Path 80" d="M-71.811,184.69H-175.19a6.27,6.27,0,0,0-6.27,6.27v81.063a6.27,6.27,0,0,0,6.27,6.27H-71.811a6.278,6.278,0,0,0,6.262-6.27V190.96a6.278,6.278,0,0,0-6.263-6.27Zm-56.426,46.031v-6.93a4.721,4.721,0,0,1,1.4-3.355,4.721,4.721,0,0,1,3.369-1.366,4.713,4.713,0,0,1,3.335,1.383,4.713,4.713,0,0,1,1.378,3.338v6.93a9.537,9.537,0,0,1,4.848,8.321,9.537,9.537,0,0,1-3.235,7.173,9.537,9.537,0,0,1-7.526,2.3,9.537,9.537,0,0,1-8.249-7.82,9.608,9.608,0,0,1,4.673-9.974Z" transform="translate(265.002 -82.602)" fill="#1be5bf"/>
    <path id="Path_81" data-name="Path 81" d="M-65.548,190.963v81.063a6.278,6.278,0,0,1-6.263,6.27H-175.19a6.27,6.27,0,0,1-6.27-6.27V268c24.581.342,61.195-.731,80.983-8.742C-72.1,247.746-72.128,199.879-73.13,184.7h1.319a6.278,6.278,0,0,1,6.263,6.263Z" transform="translate(265.002 -82.604)" fill="#49eacc"/>
    <rect id="Rectangle_9" data-name="Rectangle 9" width="249.284" height="51.221" transform="translate(249.284 246.682) rotate(180)" fill="#fff"/>
    <rect id="Rectangle_10" data-name="Rectangle 10" width="2.948" height="24.875" transform="translate(51.3 162.48)" fill="#a8a6e2"/>
    <rect id="Rectangle_11" data-name="Rectangle 11" width="7.224" height="0.946" transform="matrix(0.02, -1, 1, 0.02, 52.214, 194.209)" fill="#a8a6e2"/>
    <circle id="Ellipse_2" data-name="Ellipse 2" cx="1.462" cy="1.462" r="1.462" transform="translate(51.189 193.745)" fill="#a8a6e2"/>
    <path id="Path_82" data-name="Path 82" d="M-211.753,301.482a1.454,1.454,0,0,1-.429,1.031,1.454,1.454,0,0,1-1.034.423,1.454,1.454,0,0,1-1.454-1.454,1.454,1.454,0,0,1,.423-1.034,1.454,1.454,0,0,1,1.031-.429,1.462,1.462,0,0,1,1.462,1.462Z" transform="translate(271.819 -106.275)" fill="#a8a6e2"/>
    <path id="Path_83" data-name="Path 83" d="M72.8,242.546h-.946v-2L66.61,235.3l.668-.668,5.523,5.523Z" transform="translate(-13.673 -48.165)" fill="#a8a6e2"/>
    <path id="Path_84" data-name="Path 84" d="M-229.34,301.482a1.454,1.454,0,0,0,1.454,1.454,1.454,1.454,0,0,0,1.034-.423,1.454,1.454,0,0,0,.429-1.031,1.462,1.462,0,0,0-1.462-1.462,1.455,1.455,0,0,0-1.031.429A1.455,1.455,0,0,0-229.34,301.482Z" transform="translate(274.831 -106.275)" fill="#a8a6e2"/>
    <path id="Path_85" data-name="Path 85" d="M59.348,242.546H58.41v-2.392l5.523-5.523.66.668-5.245,5.245Z" transform="translate(-11.99 -48.165)" fill="#a8a6e2"/>
    <path id="Path_86" data-name="Path 86" d="M-212.907,211.862v37.225h-27.108a5.9,5.9,0,0,1-5.9-5.9V211.862A10.522,10.522,0,0,1-235.4,201.34h11.961A10.53,10.53,0,0,1-212.907,211.862Z" transform="translate(278.234 -86.02)" fill="#c2bcf7"/>
    <path id="Path_87" data-name="Path 87" d="M-227.339,252.81v6.843h-12.716a5.9,5.9,0,0,1-5.9-5.9v-.946Z" transform="translate(278.242 -96.585)" fill="#a8a6e2"/>
    <rect id="Rectangle_12" data-name="Rectangle 12" width="31.13" height="6.835" transform="translate(42.455 156.225)" fill="#c2bcf7"/>
    <path id="Path_88" data-name="Path 88" d="M-213.884,251.284c10.332,1.693,18.962,1.2,19.344-1.1s-7.669-5.563-17.969-7.248-18.97-1.2-19.344,1.1S-224.192,249.583-213.884,251.284Z" transform="translate(275.349 -94.351)" fill="#e6d5b9"/>
    <path id="Path_89" data-name="Path 89" d="M-187.672,251.484c7.272-3.425,9.926,28.372,8.313,35.278s-5.873-4.9-7.947-16.117S-190.533,252.835-187.672,251.484Z" transform="translate(266.629 -96.26)" fill="#e6d5b9"/>
    <path id="Path_90" data-name="Path 90" d="M-177.676,296.435a18.28,18.28,0,0,0,3.107,2.917c2.13,1.661,2.7,1.311,2.742,1.923s-8.933,0-8.933,0l.183-5.015a22.206,22.206,0,0,1,2.9.175Z" transform="translate(264.859 -105.504)" fill="#1a171e"/>
    <path id="Path_91" data-name="Path 91" d="M-202.1,246.525c10.085,3.179,18.835,3.974,19.543,1.748s-6.9-6.62-16.991-9.823-18.835-3.974-19.543-1.748S-212.193,243.322-202.1,246.525Z" transform="translate(272.736 -93.018)" fill="#e6d5b9"/>
    <path id="Path_92" data-name="Path 92" d="M-182,250.085c8.488,2.448-13.232,28.706-19.574,33.244s-.461-6.358,5.953-17.142S-185.345,249.123-182,250.085Z" transform="translate(269.69 -96.006)" fill="#e6d5b9"/>
    <path id="Path_93" data-name="Path 93" d="M-202.914,291.729a20.664,20.664,0,0,0,.445,4.673c.564,2.917,1.287,3.036.882,3.576s-7.383-6.485-7.383-6.485l3.783-3.974a23.339,23.339,0,0,1,2.273,2.209Z" transform="translate(270.649 -104.12)" fill="#1a171e"/>
    <path id="Path_94" data-name="Path 94" d="M-224.659,236.3c.612,4.419,7.566,7.733,14.432,10.069s13.725,3.688,13.963,4.149c.445.874-10.371,21.3-11.524,23.445l-.1.183,4.586,4.125s20.663-22.944,20-30.852c-.636-7.351-27.744-13.288-27.744-13.288S-225.882,227.452-224.659,236.3Z" transform="translate(273.884 -92.255)" fill="#414042"/>
    <path id="Path_95" data-name="Path 95" d="M-193.313,252.077c.445.874-10.371,21.3-11.524,23.445,6.867-6.882,21.323-22.372,17.707-27.275-4.689-6.358-23.23-8.957-23.23-8.957l3.084,8.639C-200.37,250.281-193.551,251.616-193.313,252.077Z" transform="translate(270.935 -93.81)" fill="#231f20"/>
    <path id="Path_96" data-name="Path 96" d="M-230.594,251.138c6.572,2.13,28.428,1.669,29.2,2.583s8.337,28.531,8.337,28.531h5.889c-.072,0-1.685-26.91-5.825-33.713s-28.277-11.126-28.277-11.126l-13.224-.532s-.048.2-.1.548C-235,239.844-236.332,249.27-230.594,251.138Z" transform="translate(275.997 -93.315)" fill="#414042"/>
    <path id="Path_97" data-name="Path 97" d="M-230.591,251.287c6.572,2.13,28.428,1.669,29.2,2.583s8.337,28.531,8.337,28.531h.151c.064-7.153-4.768-28.014-7.153-30.716-2.718-2.98-17.174-2.639-24.676-3.123-6.358-.413-9.139-8.416-9.823-10.951C-235,239.994-236.329,249.42-230.591,251.287Z" transform="translate(275.995 -93.465)" fill="#231f20"/>
    <path id="Path_98" data-name="Path 98" d="M-215.806,196.575c1.3-1.995,2.313-4.323,3.457-6.358a7.881,7.881,0,0,0,1.4-4.379A31.574,31.574,0,0,0-212,182.4a11.611,11.611,0,0,1-.183-2.877c0-1.335.072-2.67.1-4.013,0-.795.238-1.693-.223-2.321a15.1,15.1,0,0,0-2.5-2.09l-4.768-3.974-10.077,7.153.946,18.16,7.431,3.56,2.805,1.343c.914.437,1.494.978,2.17,0C-216.14,197.084-215.973,196.837-215.806,196.575Z" transform="translate(274.894 -78.998)" fill="#1a171e"/>
    <path id="Path_99" data-name="Path 99" d="M-217.764,199.051c.532,2.186,1.232,5.118,2.082,7.947a39.094,39.094,0,0,0,2.456,6.588c.866,1.669,1.78,2.638,2.7,2.384a1.454,1.454,0,0,0,.795-.62,4.768,4.768,0,0,0,.469-2.718,20.79,20.79,0,0,0-.445-3.314c-.27-1.319-.636-2.734-1.057-4.156-1.129-3.894-2.6-7.868-3.314-10.053-.366-1.129-2.082-.532-3.25-.628C-220.164,194.179-218.678,195.284-217.764,199.051Z" transform="translate(272.704 -84.597)" fill="#e6d5b9"/>
    <path id="Path_100" data-name="Path 100" d="M-211.465,220.331c.215.795,10.181,4.252,17.19,5.937,3.847.946,6.8,1.351,6.747.5-.111-2.019-15.156-7.693-20.258-9.537l-.5-.183a3.322,3.322,0,0,0-1.963-.1,2.52,2.52,0,0,0-.938.485,1.589,1.589,0,0,0-.564.795,3.759,3.759,0,0,0,.286,2.1Z" transform="translate(271.229 -89.203)" fill="#e6d5b9"/>
    <path id="Path_101" data-name="Path 101" d="M-212.374,216.27a3.759,3.759,0,0,0,.286,2.138c.215.795,10.181,4.252,17.19,5.937-4.435-1.756-10.856-4.435-13.979-6.358a5.285,5.285,0,0,1-1.78-1.446,2.273,2.273,0,0,1-.215-1.589,6.223,6.223,0,0,1,2.019-3.036c-.27-1.319-.636-2.734-1.057-4.156l-3.545-.278-1.375,2.146A39.1,39.1,0,0,0-212.374,216.27Z" transform="translate(271.852 -87.28)" fill="#ddcaaf"/>
    <path id="Path_102" data-name="Path 102" d="M-185.04,227.8c.556-1.589,3.179-.294,4.021.167,1.415.795,2.5,2.718,2.2,3.282s-3.409-1.351-3.584-1.28,1.256,1.16.93,1.661-2.384-.683-3.044-1.47a2.13,2.13,0,0,1-.525-2.36Z" transform="translate(265.769 -91.294)" fill="#e6d5b9"/>
    <path id="Path_103" data-name="Path 103" d="M-216.2,208.505l.882-.1,4.506-.469,1.764-.183s-.715-13.956-5.4-13.3C-218.78,195.05-216.2,208.505-216.2,208.505Z" transform="translate(272.29 -84.602)" fill="#0b3939"/>
    <path id="Path_104" data-name="Path 104" d="M-216,207.223a5.754,5.754,0,0,0,.9,1.589l4.506-.469a24.387,24.387,0,0,0,.532-3.568,12.355,12.355,0,0,0-2.05-8.3S-216,206.706-216,207.223Z" transform="translate(272.092 -85.02)"/>
    <path id="Path_105" data-name="Path 105" d="M-234.36,227.53s15.028,2.289,21.331-1.717c0,0-.35-.747-.795-1.971-.35-.93-.795-2.162-1.168-3.529a26.274,26.274,0,0,1-1.121-7.335c.119-5.857,1.836-6.771,2-10.562s-1.7-7.947-3-9.2c-2.607-2.448-9.028-2.48-11.659-1.216-2.337,1.136-3.266,2.6-3.568,4.021a48.616,48.616,0,0,0-.795,5.364c-.23,2.289-.381,4.824-.5,7.391-.127,2.384-.2,4.888-.262,7.2,0,1.168-.072,2.289-.1,3.354C-234.074,222.881-234.177,225.845-234.36,227.53Z" transform="translate(275.861 -83.933)" fill="#0b3939"/>
    <path id="Path_106" data-name="Path 106" d="M-233.44,210.826c2.607.381,6.175.668,6.708-.35.866-1.637.135-9.306.135-9.306l-6.358,2.265C-233.17,205.724-233.321,208.259-233.44,210.826Z" transform="translate(275.672 -85.985)"/>
    <path id="Path_107" data-name="Path 107" d="M-233.9,225.734a4.619,4.619,0,0,0,1.3,2.551c1.232.795,14,1.669,18.859,1.963-.35-.93-.795-2.162-1.168-3.529-2.654-.183-16.372-1.287-16.372-1.287l-2.519-3.052C-233.828,223.548-233.868,224.669-233.9,225.734Z" transform="translate(275.767 -90.339)"/>
    <path id="Path_108" data-name="Path 108" d="M-212.616,178.68c-.119,4.141-.795,5.221-2.138,6.255s-4.117,0-4.435-.143h0v3.37c0,.23.882,2.058-1.589,2.058a9.317,9.317,0,0,1-4.9-1.939v-5.9s-4.3-5.5-2.583-10.085,10.332-2.519,13-1.55S-212.513,174.564-212.616,178.68Z" transform="translate(274.693 -79.469)" fill="#e6d5b9"/>
    <path id="Path_109" data-name="Path 109" d="M68.97,132.188l-3.25-1.168,3.25,3.044Z" transform="translate(-13.49 -26.898)" fill="#e6d5b9"/>
    <path id="Path_110" data-name="Path 110" d="M-232.505,220.985a.8.8,0,0,0,.445.135c.755,0,1.4-.6,1.971-1.685a18.108,18.108,0,0,0,.985-2.8,57.668,57.668,0,0,0,1.216-7.153c.048-.437.1-.882.127-1.335.453-4.22.636-8.384.707-10.49a3,3,0,0,0-1.589-2.845c-2.567-1.216-3.974,4.085-4.387,7.947-.127,1.224-.294,2.686-.445,4.236C-234.079,212.839-234.444,219.991-232.505,220.985Z" transform="translate(275.778 -84.644)" fill="#e6d5b9"/>
    <path id="Path_111" data-name="Path 111" d="M-232.361,226.646a.12.12,0,0,0,0,.072c.58,1.033,19.272,2.384,25.845,1.431,1.518-.215,2.384-.548,2.233-1.049-.683-2.154-18.406-4.149-24.708-4.768-.3,0-.572-.072-.795-.087a3.465,3.465,0,0,0-2.583.739,2.883,2.883,0,0,0-.485.5C-233.768,224.683-232.918,225.717-232.361,226.646Z" transform="translate(275.635 -90.306)" fill="#e6d5b9"/>
    <path id="Path_112" data-name="Path 112" d="M-232.507,224.177a.119.119,0,0,0,0,.072c.58,1.033,19.272,2.384,25.845,1.431a.143.143,0,0,0,.048-.107.143.143,0,0,0-.048-.107c-.866-1-17.977-1.987-23.461-2.837a5.858,5.858,0,0,1-1.589-.366,2.329,2.329,0,0,1-.795-1.78,30.752,30.752,0,0,1,.381-7.153c.183-1.367,3.6-.755,4.22-.62h.1l.556-.882-.525-.469-1.2-1.081-4.53-.087C-234.08,216.031-234.446,223.184-232.507,224.177Z" transform="translate(275.78 -87.836)" fill="#ddcaaf"/>
    <path id="Path_113" data-name="Path 113" d="M-201.206,227.57c.175-1.876,3.378-1.208,4.458-.938,1.764.437,3.5,2.289,3.338,2.988s-4.125-.532-4.292-.405,1.693.922,1.478,1.589-2.829-.079-3.751-.795A2.384,2.384,0,0,1-201.206,227.57Z" transform="translate(269.061 -91.142)" fill="#e6d5b9"/>
    <path id="Path_114" data-name="Path 114" d="M-234.26,207.9s.31-13.693,4.665-13.375c4.713.342,2.3,14.1,2.3,14.1Z" transform="translate(275.84 -84.621)" fill="#0b3939"/>
    <path id="Path_115" data-name="Path 115" d="M-213.168,175.425c.556-3.179.747-5.237-.167-7.2-2.058-4.419-13.121-7.216-16.976,1.129-.27.58-.517,1.168-.755,1.764a54.915,54.915,0,0,0-3.386,13.749,43.164,43.164,0,0,0-.35,5.992,19,19,0,0,0,.167,2.329,5.638,5.638,0,0,0,.58,2.559,4.252,4.252,0,0,0,1.208.946,2.384,2.384,0,0,0,1.168.453,2.384,2.384,0,0,0,1.184-.421,11.834,11.834,0,0,0,4.037-3.767,7.01,7.01,0,0,0,.97-5.333c-.143-.548-.366-1.073-.525-1.589a7.812,7.812,0,0,1,0-4.315c.2-.7.668-1.319.795-2.035a8.06,8.06,0,0,0,.135-1.907,7.943,7.943,0,0,1,0-.97,4.175,4.175,0,0,1,.175-.795c.135-.493.278-.985.413-1.478a2.972,2.972,0,0,1,.723-1.446,3.5,3.5,0,0,1,.954-.532,4.6,4.6,0,0,0,2.782-3.092c1.923,2.289,3.791,5.317,6.946,6.016" transform="translate(275.952 -78.352)" fill="#1a171e"/>
    <path id="Path_116" data-name="Path 116" d="M-160.141,209.72l-8.639,17.707s-17.945-.127-18.08,0l8.631-17.707Z" transform="translate(266.111 -87.74)" fill="#dfe5e4"/>
    <path id="Path_117" data-name="Path 117" d="M83.39,175.058l13.034-.008.517-1.065.588-1.2-13.8-.1-.175,1.192Z" transform="translate(-17.117 -35.451)" fill="#c7d8d5"/>
    <path id="Path_118" data-name="Path 118" d="M108.231,153.49h-.66L99.1,171.038l.54.072Z" transform="translate(-20.342 -31.51)" fill="#c7d8d5"/>
    <path id="Path_119" data-name="Path 119" d="M-203.19,231.6h13.034l.517-1.057c0,.04-13.407-.111-13.383-.111Z" transform="translate(269.463 -91.991)" fill="#c7d8d5"/>
    <path id="Path_120" data-name="Path 120" d="M-168.438,221.544a1.873,1.873,0,0,1-2.5.644,1.868,1.868,0,0,1,.1-2.583,1.864,1.864,0,0,1,2.5-.644A1.875,1.875,0,0,1-168.438,221.544Z" transform="translate(262.939 -89.582)" fill="#c7d8d5"/>
    <rect id="Rectangle_13" data-name="Rectangle 13" width="2.058" height="56.029" transform="translate(34.269 140.251)" fill="#1e1c23"/>
    <rect id="Rectangle_14" data-name="Rectangle 14" width="2.058" height="56.029" transform="translate(105.58 140.251)" fill="#1e1c23"/>
    <rect id="Rectangle_15" data-name="Rectangle 15" width="95.384" height="4.117" transform="translate(118.614 143.446) rotate(180)" fill="#1a171e"/>
    <path id="Path_121" data-name="Path 121" d="M-42.739,242.387h.111a10.332,10.332,0,0,0,3.115-1.1v2.265a3.831,3.831,0,0,1-3.044,2.726,3.87,3.87,0,0,1-3.044-2.742v-2.1a10.22,10.22,0,0,0,2.861.946Z" transform="translate(237.115 -94.22)" fill="#ddcbb1"/>
    <path id="Path_122" data-name="Path 122" d="M-43.818,238.276h-.111a10.22,10.22,0,0,1-2.829-.946,5.094,5.094,0,0,1-3.052-3.711s-1.589-.7-1.589-2,1.415-.962,1.415-.962-1.152-4.117,1.017-7.153,4.951-2.1,4.951-2.1h.223s2.8-.946,4.967,2.1,1.009,7.153,1.009,7.153,1.391-.342,1.423.962-1.589,2-1.589,2a4.991,4.991,0,0,1-2.766,3.56,10.331,10.331,0,0,1-3.068,1.1Z" transform="translate(238.306 -90.11)" fill="#e6d5b9"/>
    <path id="Path_123" data-name="Path 123" d="M-31.885,281.353v.087A100.14,100.14,0,0,0-45.22,288.2a100.506,100.506,0,0,0-13.32-6.755V272.19h26.655Z" transform="translate(239.771 -100.563)" fill="#fff"/>
    <path id="Path_124" data-name="Path 124" d="M-61.211,273.756v5.913c-1.168-.461-2.329-.866-3.425-1.192-2.8-2.257-6.628-5.563-7.057-6.97-.35-1.113,1.16-4.371,3.06-7.947h0l4.768,2.67,1.454.858c-.85,1.534-1.589,3.012-1.431,3.378a19.136,19.136,0,0,0,2.559,3.258Z" transform="translate(242.481 -98.791)" fill="#e6d5b9"/>
    <path id="Path_125" data-name="Path 125" d="M-14.5,271.516c-.421,1.4-4.236,4.7-7.033,6.962-1.1.326-2.265.723-3.449,1.2v-5.913H-25a18.888,18.888,0,0,0,2.559-3.258c.135-.366-.58-1.844-1.431-3.378l1.5-.85L-17.6,263.6h0C-15.646,267.145-14.144,270.4-14.5,271.516Z" transform="translate(232.887 -98.8)" fill="#e6d5b9"/>
    <path id="Path_126" data-name="Path 126" d="M-20.232,271.5A64.376,64.376,0,0,1-25,277.33v-2.925h0a18.888,18.888,0,0,0,2.559-3.258c.135-.366-.58-1.844-1.431-3.378L-22,266.72C-21.106,267.888-19.516,270.241-20.232,271.5Z" transform="translate(232.887 -99.44)" fill="#ddcbb1"/>
    <path id="Path_127" data-name="Path 127" d="M-26.351,259.6h0l-4.387,2.48-.366.207h0l-1.534.827c-.23-.421-.477-.842-.715-1.256-.795-1.375-1.589-2.583-1.709-2.805v-.04s-.3,4.872-.175,7.153v.223H-58.983v-.223c.151-2.3-.167-7.153-.167-7.153h0c-.183.27-1.4,2.217-2.384,4.069l-1.558-.763-4.768-2.67h0c1.947-3.672,4.347-7.677,5.563-9.99,2.019-3.711,8.8-5.015,11.238-5.364.556-.079.882-.111.882-.111a3.854,3.854,0,0,0,3.036,2.742,3.854,3.854,0,0,0,3.052-2.726,4.891,4.891,0,0,1,.874.111c2.432.342,9.227,1.629,11.245,5.349,1.121,2.058,3.131,5.46,4.943,8.742C-26.78,258.787-26.566,259.193-26.351,259.6Z" transform="translate(241.684 -94.813)" fill="#0b3939"/>
    <path id="Path_128" data-name="Path 128" d="M-22.3,265.084l-.366.207h0l-1.5.819c-1.017-1.828-2.233-3.775-2.424-4.061V258.79a51.755,51.755,0,0,1,4.292,6.294Z" transform="translate(233.213 -97.812)"/>
    <path id="Path_129" data-name="Path 129" d="M-57.916,259.06V262.1h0c-.183.278-1.4,2.217-2.424,4.069l-1.51-.858a64.565,64.565,0,0,1,3.934-6.247Z" transform="translate(240.451 -97.868)"/>
    <path id="Path_130" data-name="Path 130" d="M-59.6,274.454v2.074c-2.09-1.629-4.26-3.648-4.307-5.11a12.059,12.059,0,0,1,1.589-4.458l1.518.827c-.85,1.534-1.589,3.012-1.431,3.378a19.136,19.136,0,0,0,2.559,3.258Z" transform="translate(240.873 -99.489)" fill="#ddcbb1"/>
    <path id="Path_131" data-name="Path 131" d="M-50.76,228.636a2.337,2.337,0,0,1-.381-1.431,2.257,2.257,0,0,1,.795-1.589,1.256,1.256,0,0,1-.072-.795.954.954,0,0,1,.676-.7,2.281,2.281,0,0,1,.183-1.653,1.438,1.438,0,0,1,1.756-.644,2.3,2.3,0,0,1,1.1-1.931,1.709,1.709,0,0,1,1.756.167.914.914,0,0,1,.6-.572.747.747,0,0,1,.739.366.731.731,0,0,1,.731-.366.914.914,0,0,1,.6.572,1.709,1.709,0,0,1,1.756-.167,2.3,2.3,0,0,1,1.1,1.923,1.438,1.438,0,0,1,1.756.644,2.281,2.281,0,0,1,.183,1.653.954.954,0,0,1,.676.7,1.256,1.256,0,0,1-.072.795,2.257,2.257,0,0,1,.795,1.589,2.337,2.337,0,0,1-.381,1.431.9.9,0,0,1,.27.946.691.691,0,0,1-.676.54,1.288,1.288,0,0,1-.3.246,1.167,1.167,0,0,1-.246.087.858.858,0,0,1-.461-.405,1.478,1.478,0,0,1-.048-1.168,2.464,2.464,0,0,1-.564-1.772,1.892,1.892,0,0,1,.159-.54,1.884,1.884,0,0,1-1.065-1.216,2.145,2.145,0,0,1-.072-.676.556.556,0,0,1-.676,0,.8.8,0,0,1-.238-.389,1.788,1.788,0,0,1-1.113.27,1.868,1.868,0,0,1-1.089-.532.962.962,0,0,1-1.017.6h0a.962.962,0,0,1-1.017-.6,1.868,1.868,0,0,1-1.089.532,1.788,1.788,0,0,1-1.113-.27.8.8,0,0,1-.238.389.556.556,0,0,1-.676,0,2.384,2.384,0,0,1-.064.676,1.915,1.915,0,0,1-1.073,1.216,1.892,1.892,0,0,1,.159.54,2.464,2.464,0,0,1-.564,1.772,1.478,1.478,0,0,1-.048,1.168.858.858,0,0,1-.461.405,1.168,1.168,0,0,1-.246-.087,1.288,1.288,0,0,1-.3-.246.691.691,0,0,1-.676-.54.9.9,0,0,1,.238-.938Z" transform="translate(238.253 -89.744)" fill="#1a171e"/>
    <path id="Path_132" data-name="Path 132" d="M-36.576,294.393v1.963l-.048,2.734s-2.686-.238-6.58-.747a139.362,139.362,0,0,1-17.826-3.354c-5.333-1.462-9.728-3.346-10.816-5.7-2.384-5.134,2.67-9.235,8.5-7.216,2.337.795,7.1,2.948,11.977,5.221C-44.118,290.689-36.576,294.393-36.576,294.393Z" transform="translate(242.626 -102.484)" fill="#1e1c23"/>
    <path id="Path_133" data-name="Path 133" d="M-33.626,295.877v1.963l-6.628,1.987a139.361,139.361,0,0,1-17.826-3.354,87.164,87.164,0,0,0,9.6-7.693C-41.168,292.174-33.626,295.877-33.626,295.877Z" transform="translate(239.677 -103.968)" fill="#151319"/>
    <path id="Path_134" data-name="Path 134" d="M-24.83,298.528v4.188s5.468.366,5.825-.246.795-2.829-.612-3.886S-24.393,297.432-24.83,298.528Z" transform="translate(232.852 -105.809)" fill="#1e1c23"/>
    <path id="Path_135" data-name="Path 135" d="M259.077,241.48l2.146.787V246.4l-2.233-.223Z" transform="translate(-53.162 -49.571)" fill="#e6d5b9"/>
    <path id="Path_136" data-name="Path 136" d="M-56.111,299.091s31.988-2.837,35.231-9.8c2.384-5.134-2.678-9.235-8.5-7.208s-26.806,12.31-26.806,12.31Z" transform="translate(239.289 -102.485)" fill="#1e1c23"/>
    <path id="Path_137" data-name="Path 137" d="M229.926,241.48l-2.146.787V246.4l2.233-.223Z" transform="translate(-46.755 -49.571)" fill="#e6d5b9"/>
    <path id="Path_138" data-name="Path 138" d="M-60.336,298.528v4.188s-5.476.366-5.825-.246-.795-2.829.612-3.886S-60.773,297.432-60.336,298.528Z" transform="translate(241.408 -105.809)" fill="#1e1c23"/>
    <rect id="Rectangle_16" data-name="Rectangle 16" width="13.073" height="13.073" rx="3.05" transform="translate(50.06 37.619)" fill="#deddf2"/>
    <path id="Path_139" data-name="Path 139" d="M-207.235,122.77h-8.988a2.615,2.615,0,0,1-2.607-2.615v-8.988a2.607,2.607,0,0,1,2.607-2.607h8.988a2.607,2.607,0,0,1,2.607,2.607v8.988a2.615,2.615,0,0,1-2.607,2.615Zm-8.988-12.159a.556.556,0,0,0-.556.556v8.988a.556.556,0,0,0,.556.556h8.988a.556.556,0,0,0,.556-.556v-8.988a.564.564,0,0,0-.556-.556Z" transform="translate(272.673 -66.975)" fill="#ceceea"/>
    <rect id="Rectangle_17" data-name="Rectangle 17" width="9.926" height="9.926" rx="2.32" transform="translate(200.289 63.543)" fill="#deddf2"/>
    <path id="Path_140" data-name="Path 140" d="M-30.444,150.765h-6.819a1.987,1.987,0,0,1-1.987-1.979v-6.827a1.987,1.987,0,0,1,1.987-1.979h6.819a1.987,1.987,0,0,1,1.987,1.979v6.827a1.987,1.987,0,0,1-1.987,1.979Zm-6.819-9.227a.421.421,0,0,0-.421.421v6.827a.421.421,0,0,0,.421.421h6.819a.421.421,0,0,0,.421-.421v-6.827a.421.421,0,0,0-.421-.421Z" transform="translate(235.812 -73.425)" fill="#ceceea"/>
    <path id="Path_141" data-name="Path 141" d="M-39.332,71.8a.97.97,0,0,1-.7-.294l-2.384-2.384a.993.993,0,0,1-.292-.7.993.993,0,0,1,.292-.7l2.384-2.384a.993.993,0,0,1,.7-.292.993.993,0,0,1,.7.292l2.384,2.384a.97.97,0,0,1,.294.7.985.985,0,0,1-.294.707l-2.384,2.384A.985.985,0,0,1-39.332,71.8Zm0-5.937a.159.159,0,0,0-.127.056l-2.384,2.384a.191.191,0,0,0,0,.262l2.384,2.384a.159.159,0,0,0,.131.069.159.159,0,0,0,.131-.069l2.384-2.384a.191.191,0,0,0,.056-.135.183.183,0,0,0-.056-.127L-39.2,65.923a.183.183,0,0,0-.135-.056Z" transform="translate(236.521 -58.043)" fill="#ceceea"/>
    <path id="Path_142" data-name="Path 142" d="M-24.614,194.314a.969.969,0,0,1-.707-.294l-2.384-2.384a.993.993,0,0,1-.292-.7.993.993,0,0,1,.292-.7l2.384-2.384a.993.993,0,0,1,.7-.292.993.993,0,0,1,.7.292l2.384,2.384a.993.993,0,0,1,.292.7.993.993,0,0,1-.292.7l-2.384,2.384a.962.962,0,0,1-.7.294Zm-.135-.866a.159.159,0,0,0,.131.069.159.159,0,0,0,.131-.069l2.384-2.384a.183.183,0,0,0,.056-.127.191.191,0,0,0-.056-.135l-2.384-2.384a.159.159,0,0,0-.131-.069.159.159,0,0,0-.131.069l-2.384,2.384a.191.191,0,0,0-.056.135.183.183,0,0,0,.056.127Z" transform="translate(233.502 -83.19)" fill="#ceceea"/>
    <path id="Path_143" data-name="Path 143" d="M-174.772,62.966a1.017,1.017,0,0,1-.707-.286l-2.384-2.384a1.009,1.009,0,0,1-.286-.707.993.993,0,0,1,.286-.7l2.384-2.384a1,1,0,0,1,1.415,0l2.384,2.384a.969.969,0,0,1,.294.7.986.986,0,0,1-.294.707l-2.384,2.384A1.017,1.017,0,0,1-174.772,62.966Zm0-5.929a.191.191,0,0,0-.135.056l-2.384,2.384a.167.167,0,0,0-.048.127.175.175,0,0,0,.048.135l2.384,2.384a.167.167,0,0,0,.135.069.167.167,0,0,0,.135-.069l2.384-2.384a.159.159,0,0,0,.056-.135.151.151,0,0,0-.056-.127l-2.384-2.384a.191.191,0,0,0-.135-.056Z" transform="translate(264.323 -56.23)" fill="#ceceea"/>
    <path id="Path_144" data-name="Path 144" d="M-246.684,188.133a.978.978,0,0,1-.707-.294l-2.384-2.384a.97.97,0,0,1-.294-.7.985.985,0,0,1,.294-.707l2.384-2.384a1.017,1.017,0,0,1,.707-.294h0a.97.97,0,0,1,.7.294l2.384,2.384a.993.993,0,0,1,.292.7.993.993,0,0,1-.292.7l-2.384,2.384a.961.961,0,0,1-.7.294Zm0-5.937a.191.191,0,0,0-.135.056l-2.384,2.384a.191.191,0,0,0-.056.135.183.183,0,0,0,.056.127l2.384,2.384a.191.191,0,0,0,.262,0l2.384-2.384a.183.183,0,0,0,.056-.127.191.191,0,0,0-.056-.135l-2.384-2.384A.183.183,0,0,0-246.684,182.2Z" transform="translate(279.086 -81.921)" fill="#ceceea"/>
    <path id="Path_145" data-name="Path 145" d="M10.013,209.489a1.049,1.049,0,0,1-.747-.31L6.5,206.413a1.065,1.065,0,0,1,0-1.5l2.289-2.281a1.057,1.057,0,0,1,1.494,0l2.766,2.758a1.065,1.065,0,0,1,0,1.5l-2.241,2.329a1.049,1.049,0,0,1-.795.27Zm-.143-.922a.2.2,0,0,0,.286,0l2.281-2.281a.2.2,0,0,0,0-.286l-2.758-2.766a.2.2,0,0,0-.286,0L7.1,205.523a.215.215,0,0,0,0,.286Z" transform="translate(226.484 -86.221)" fill="#ceceea"/>
    <circle id="Ellipse_3" data-name="Ellipse 3" cx="1.605" cy="1.605" r="1.605" transform="translate(77.733 73.557)" fill="#deddf2"/>
    <path id="Path_146" data-name="Path 146" d="M-3.795,110.559a1.717,1.717,0,0,1-1.717,1.717,1.717,1.717,0,0,1-1.709-1.717,1.709,1.709,0,0,1,1.709-1.709,1.717,1.717,0,0,1,1.717,1.709Z" transform="translate(229.237 -67.035)" fill="#deddf2"/>
    <path id="Path_147" data-name="Path 147" d="M-111.3,65.029a1.717,1.717,0,0,1-1.717,1.717,1.717,1.717,0,0,1-1.709-1.717,1.709,1.709,0,0,1,1.709-1.709,1.717,1.717,0,0,1,1.717,1.709Z" transform="translate(251.305 -57.689)" fill="#deddf2"/>
    <path id="Path_148" data-name="Path 148" d="M-160.442,120.961a1.979,1.979,0,0,1-1.979,1.979,1.971,1.971,0,0,1-1.4-.577,1.971,1.971,0,0,1-.577-1.4,1.971,1.971,0,0,1,.58-1.4,1.971,1.971,0,0,1,1.4-.574,1.979,1.979,0,0,1,1.979,1.971Z" transform="translate(261.501 -69.116)" fill="#deddf2"/>
    <circle id="Ellipse_4" data-name="Ellipse 4" cx="1.431" cy="1.431" r="1.431" transform="translate(40.587 70.553)" fill="#deddf2"/>
    <path id="Path_149" data-name="Path 149" d="M-188.849,178.1a1.431,1.431,0,0,1-1.431,1.431,1.422,1.422,0,0,1-1.014-.417,1.422,1.422,0,0,1-.417-1.014,1.431,1.431,0,0,1,1.431-1.431A1.438,1.438,0,0,1-188.849,178.1Z" transform="translate(267.106 -80.956)" fill="#deddf2"/>
    <path id="Path_150" data-name="Path 150" d="M-244.776,160.838a.636.636,0,0,1-.636.636.636.636,0,0,1-.628-.636.636.636,0,0,1,.628-.628.636.636,0,0,1,.636.628Z" transform="translate(278.259 -77.577)" fill="#deddf2"/>
    <path id="Path_151" data-name="Path 151" d="M-86.387,71.668a15.227,15.227,0,0,0-5.19-.858,15.7,15.7,0,0,0-14.965,11.42h-71.9a3.179,3.179,0,0,0-3.179,3.179v5.42h0v4.7a2.694,2.694,0,0,0,.792,1.908,2.694,2.694,0,0,0,1.91.786h.477a2.7,2.7,0,0,0,2.7-2.694v-4.7h3.354v4.7a2.7,2.7,0,0,0,2.7,2.694h.62a2.7,2.7,0,0,0,2.7-2.694v-4.7h3.425v4.554a2.79,2.79,0,0,0,2.384,2.837,2.694,2.694,0,0,0,2.09-.678,2.694,2.694,0,0,0,.89-2.009v-4.7h50.966a15.577,15.577,0,0,0,2.766,5.42,15.68,15.68,0,0,0,12.35,6,15.713,15.713,0,0,0,11.37-4.867A15.711,15.711,0,0,0-75.793,85.8,15.839,15.839,0,0,0-86.387,71.668Zm4.84,18.207a4.029,4.029,0,0,1-2.225.668,4.029,4.029,0,0,1-3.974-4.029,4.029,4.029,0,0,1,3.974-4.029,3.973,3.973,0,0,1,2.249.691h0a4.029,4.029,0,0,1,1.772,3.338A4.021,4.021,0,0,1-81.547,89.875Z" transform="translate(265.035 -59.226)" fill="#1be5bf"/>
    <path id="Path_152" data-name="Path 152" d="M-217.44,188.413h0v1.78a17.628,17.628,0,0,1-2.71-3.123l2.718,1.311Z" transform="translate(272.944 -83.091)" fill="#ddcaaf"/>
    <path id="Path_153" data-name="Path 153" d="M-148.495,223.067a23.651,23.651,0,0,1-1.5-4.2c-.254-1.407-1.017-2.543-1.033-3.25s1.129-1.113,1.431-2.551.906-3.791,1.28-3.719.628,2.654.985,3.29,1.311,1.423.572,2.344-.35,2.011.334,2.964-1.256,2.146-1.065,3.449a10.769,10.769,0,0,1-.167,3.052Z" transform="translate(258.756 -87.664)" fill="#ceceea"/>
    <path id="Path_154" data-name="Path 154" d="M-147.677,221.028a.111.111,0,0,1-.111-.1,7.59,7.59,0,0,0-.564-2.042,3.369,3.369,0,0,1-.318-1.1,1.685,1.685,0,0,1,.437-1.041,2.122,2.122,0,0,0,.469-.978,7.948,7.948,0,0,0-.636-2.646.111.111,0,0,1,.064-.143.119.119,0,0,1,.151.056,8.114,8.114,0,0,1,.652,2.766,2.448,2.448,0,0,1-.517,1.081,1.478,1.478,0,0,0-.4.9,3.49,3.49,0,0,0,.31,1.033,7.789,7.789,0,0,1,.572,2.09.111.111,0,0,1-.021.084.111.111,0,0,1-.074.044Z" transform="translate(258.272 -88.407)" fill="#deddf2"/>
    <path id="Path_155" data-name="Path 155" d="M-151.268,223.527c-.286-.127-.374-1.645-.882-1.876a2.384,2.384,0,0,1-1.049-1.669c-.167-.739-1.677-1.049-1.955-1.844s.564-1.359.509-2.1-.683-1.788-.23-2.273,1.248,1.192,1.677,1.534,1.248.707,1.017,1.335.087,1.645,1.589,2.209S-148.185,224.91-151.268,223.527Z" transform="translate(259.614 -88.553)" fill="#deddf2"/>
    <path id="Path_156" data-name="Path 156" d="M-150.7,221.463a.111.111,0,0,1-.111-.072,3,3,0,0,0-1.272-1.645,5.627,5.627,0,0,1-.795-.731,3.28,3.28,0,0,1-.421-2.567.1.1,0,0,1,.049-.071.1.1,0,0,1,.086-.009.1.1,0,0,1,.071.049.1.1,0,0,1,.009.086,3.089,3.089,0,0,0,.374,2.384,4.9,4.9,0,0,0,.795.7,3.338,3.338,0,0,1,1.351,1.756.119.119,0,0,1-.079.143Z" transform="translate(259.24 -89.104)" fill="#ceceea"/>
    <path id="Path_157" data-name="Path 157" d="M-146.888,223.589c.072-.23.151-1.208.676-1.438a2.575,2.575,0,0,0,1.478-1.057c.413-.683,0-1.74.453-2.456s1.47-.04,2-.795-.644-1.971-.23-2.5.985-1.971.421-2.154-2.162.795-2.575,1.74-1.248,1.431-1.438,2.154-.795,1.1-.938,1.812a20.14,20.14,0,0,1-.191,2.607A3.425,3.425,0,0,0-146.888,223.589Z" transform="translate(257.984 -88.449)" fill="#deddf2"/>
    <path id="Path_158" data-name="Path 158" d="M-146.537,229.954h-4.768a.636.636,0,0,1-.636-.612l-.2-5.062h6.469l-.2,5.062a.636.636,0,0,1-.206.446.636.636,0,0,1-.462.166Z" transform="translate(258.984 -90.729)" fill="#0b3939"/>
    <path id="Path_159" data-name="Path 159" d="M-145.489,221.447h0a.119.119,0,0,1-.111-.119,6.255,6.255,0,0,1,1.542-3.886,6.111,6.111,0,0,0,.882-1.923.119.119,0,0,1,.143-.079.119.119,0,0,1,.079.143,6.478,6.478,0,0,1-.93,2,6.04,6.04,0,0,0-1.486,3.759A.119.119,0,0,1-145.489,221.447Z" transform="translate(257.642 -88.913)" fill="#ceceea"/>
    <path id="Path_160" data-name="Path 160" d="M96.119,164.77l-.151,2.742-.167,3.036-.135,2.567H90.7l-.135-2.567-.151-3.036-.143-2.742Z" transform="translate(-18.529 -33.825)" fill="#dfe5e4"/>
    <rect id="Rectangle_18" data-name="Rectangle 18" width="5.118" height="0.898" transform="translate(72.106 130.142)" fill="#131016"/>
    <rect id="Rectangle_19" data-name="Rectangle 19" width="6.525" height="1.16" transform="translate(71.399 130.913)" fill="#131016"/>
    <path id="Path_161" data-name="Path 161" d="M96.005,168.22l-.167,3.036H90.6l-.151-3.036Z" transform="translate(-18.566 -34.534)" fill="#0b3939"/>
    <circle id="Ellipse_5" data-name="Ellipse 5" cx="0.803" cy="0.803" r="0.803" transform="translate(73.863 134.41)" fill="#dfe5e4"/>
    <path id="Path_162" data-name="Path 162" d="M-21.19,260.72" transform="translate(232.105 -98.209)" fill="#ddcbb1"/>
  </g>
</svg>
