<svg xmlns="http://www.w3.org/2000/svg" width="247.131" height="93.246" viewBox="0 0 247.131 93.246">
  <g id="لوجو_موكلي" data-name="لوجو موكلي" transform="translate(-115.71 -604.4)">
    <g id="Group_5" data-name="Group 5" transform="translate(269.618 604.4)">
      <path id="Path_25" data-name="Path 25" d="M1193.143,689.651c-.452.536-.893,1.064-1.339,1.585a27.117,27.117,0,0,1-7.029,5.744,4.732,4.732,0,0,1-2.539.646c-4.027-.03-8.054-.046-12.08,0a16.29,16.29,0,0,1-3.894-.494,34.333,34.333,0,0,1-4.967-1.536,21.691,21.691,0,0,1-6.068-3.79,23.776,23.776,0,0,1-5.691-7.189,26.436,26.436,0,0,1-2.434-7.58,29.945,29.945,0,0,1-.243-5.238c-.021-14.4,0-28.8-.028-43.2a25.63,25.63,0,0,1,.936-6.68,22.861,22.861,0,0,1,4.176-8.306,23.6,23.6,0,0,1,8.256-6.723,25.461,25.461,0,0,1,7.31-2.269,19.469,19.469,0,0,1,3.066-.219q23.146-.009,46.294-.006a22.148,22.148,0,0,1,5.626.887,22.7,22.7,0,0,1,8.265,4.127,23.589,23.589,0,0,1,6.8,8.32,25.8,25.8,0,0,1,2.263,7.262,21.988,21.988,0,0,1,.221,3.573q.013,22.92.009,45.84a22.017,22.017,0,0,1-.875,5.576,22.841,22.841,0,0,1-3.932,8.036,23.929,23.929,0,0,1-6.2,5.767,21.082,21.082,0,0,1-4.887,2.4c-1.454.473-2.978.728-4.462,1.115-2.048.531-4.13.276-6.2.3-3.857.04-7.715,0-11.574.025a1.941,1.941,0,0,1-1.4-.543,73.907,73.907,0,0,1-7.221-7.33C1193.282,689.729,1193.246,689.717,1193.143,689.651ZM1216.3,643.5c.006.051.011.1.017.152-.484.022-.969.031-1.452.07s-.976.1-1.461.164a27.143,27.143,0,0,0-15.934,7.868c-.551.549-.537.548-.124,1.181a28.362,28.362,0,0,1,4.6,19.565,30.054,30.054,0,0,1-5.248,13.422.57.57,0,0,0,.069.854,30.209,30.209,0,0,0,4.364,4.014,1.959,1.959,0,0,0,1.257.424c4.332-.016,8.663.009,12.995-.021a33.626,33.626,0,0,0,3.482-.254,15.041,15.041,0,0,0,6.969-2.685,17.119,17.119,0,0,0,7.824-14.667q.07-22.591,0-45.18a18.914,18.914,0,0,0-.393-3.826,16.818,16.818,0,0,0-2.772-6.3,17.549,17.549,0,0,0-8.48-6.477,17.892,17.892,0,0,0-6.22-1.022q-22.105.018-44.212.018a32.974,32.974,0,0,0-3.533.257,14.987,14.987,0,0,0-6.963,2.7,17.145,17.145,0,0,0-7.811,14.725c-.036,15.01-.01,30.018-.014,45.028a18.327,18.327,0,0,0,.579,4.563,16.82,16.82,0,0,0,3.681,7.018,17.076,17.076,0,0,0,12.984,6.1c4.635.085,9.272.024,13.908.009a1.492,1.492,0,0,0,.833-.281,28.962,28.962,0,0,0,2.281-1.857c.912-.846,1.763-1.758,2.588-2.59-7.426-11.384-7.811-22.725-.494-34.221a25.075,25.075,0,0,0-5.112-4.33,28.231,28.231,0,0,0-14.19-4.458c8.471-2.169,16.172-.7,23.027,4.855C1200.187,642.844,1207.88,641.411,1216.3,643.5Zm-23,38.171a26.178,26.178,0,0,0,3.112-12.163,24.706,24.706,0,0,0-3.1-12.195A25,25,0,0,0,1193.3,681.667Z" transform="translate(-1146.83 -604.4)" fill="#fff"/>
      <path id="Path_26" data-name="Path 26" d="M1395.274,741.961c0,1.254,0,2.469,0,3.684,0,2.145,1.811,3.314,3.676,2.249a9.15,9.15,0,0,1,5.258-1.219c1.82.107,3.651.024,5.478.024h.611c.042.457.109.872.112,1.287.012,1.809.019,3.62,0,5.429a6.091,6.091,0,0,1-6.114,6.084q-4.236.018-8.472,0a6.093,6.093,0,0,1-6.13-6.12c-.014-1.827-.022-3.652,0-5.479a6.1,6.1,0,0,1,5.3-5.938C1395.066,741.954,1395.133,741.961,1395.274,741.961Zm4.83,11.119c-.524,0-1.046-.009-1.57,0a.791.791,0,1,0,0,1.575q1.521.016,3.039,0a.791.791,0,1,0,0-1.575C1401.084,753.071,1400.594,753.08,1400.1,753.08Zm-4.826-3.245c0,.3-.021.61,0,.912a.77.77,0,0,0,.772.727.713.713,0,0,0,.776-.654,11.5,11.5,0,0,0,0-1.87.707.707,0,0,0-.778-.649.762.762,0,0,0-.77.724C1395.261,749.291,1395.279,749.565,1395.279,749.835Zm9.553.075c0-.27.012-.542,0-.811a.786.786,0,0,0-.751-.8.759.759,0,0,0-.821.724,14.128,14.128,0,0,0,0,1.723.778.778,0,0,0,.821.731.8.8,0,0,0,.752-.8C1404.844,750.418,1404.832,750.163,1404.832,749.909Z" transform="translate(-1353.434 -721.425)" fill="#fff"/>
      <path id="Path_27" data-name="Path 27" d="M1437.813,685.538c0-1.59-.007-3.179,0-4.769a3.438,3.438,0,0,1,3.593-3.561q4.793,0,9.588,0a3.441,3.441,0,0,1,3.6,3.608q0,2.817,0,5.632a3.432,3.432,0,0,1-3.545,3.558c-2.858.006-5.717,0-8.574.012a2.3,2.3,0,0,0-.913.216c-.784.36-1.545.764-2.318,1.146-.934.463-1.433.161-1.433-.869Q1437.811,688.024,1437.813,685.538Zm8.415.491q2.053,0,4.106,0c.642,0,1.02-.3,1.021-.8s-.378-.8-1.017-.8q-4.133,0-8.265,0c-.643,0-1.018.3-1.019.8s.367.8,1.015.8C1443.457,686.032,1444.842,686.029,1446.229,686.029Zm0-4.779c-1.4,0-2.8,0-4.206,0-.606,0-.967.307-.963.794s.358.787.975.788q4.18.007,8.362,0c.6,0,.967-.315.964-.8s-.369-.782-.976-.784C1449,681.246,1447.611,681.249,1446.226,681.249Z" transform="translate(-1394.378 -666.338)" fill="#fff"/>
      <path id="Path_28" data-name="Path 28" d="M1273.936,875.92l5.094,10.3h-10.19Zm1.824,8.268-1.824-3.685c-.623,1.255-1.209,2.442-1.824,3.685Z" transform="translate(-1250.628 -835.392)" fill="#fff"/>
      <path id="Path_29" data-name="Path 29" d="M1589.209,886.225H1579.02l5.093-10.295C1585.833,879.4,1587.506,882.784,1589.209,886.225Zm-3.266-2.024c-.621-1.254-1.2-2.43-1.828-3.691l-1.823,3.691Z" transform="translate(-1514.51 -835.401)" fill="#fff"/>
      <path id="Path_30" data-name="Path 30" d="M1280.175,955.4a5.01,5.01,0,0,1-9.945,0Z" transform="translate(-1251.811 -903.009)" fill="#fff"/>
      <path id="Path_31" data-name="Path 31" d="M1590.345,955.41a5.011,5.011,0,0,1-9.945,0Z" transform="translate(-1515.684 -903.017)" fill="#fff"/>
      <path id="Path_32" data-name="Path 32" d="M1369.932,717.71c0-1.109-.009-2.07.006-3.033a.527.527,0,0,0-.322-.546,2.359,2.359,0,0,1-1.194-2.7,2.394,2.394,0,0,1,4.627.006,2.352,2.352,0,0,1-1.2,2.7c-.248.134-.376.279-.315.543.251,1.088-.5,1.836-.933,2.681C1370.523,717.518,1370.223,717.565,1369.932,717.71Z" transform="translate(-1335.277 -693.94)" fill="#fff"/>
      <path id="Path_33" data-name="Path 33" d="M1369.659,782.3a2.287,2.287,0,0,1-1.67-2.151q-.031-1.7,0-3.4a2.3,2.3,0,0,1,1.67-2.145C1369.659,777.171,1369.659,779.725,1369.659,782.3Z" transform="translate(-1334.964 -749.204)" fill="#fff"/>
      <path id="Path_34" data-name="Path 34" d="M1539.05,774.71a2.235,2.235,0,0,1,1.667,2.093c.028,1.166.03,2.334,0,3.5a2.248,2.248,0,0,1-1.666,2.078Z" transform="translate(-1480.506 -749.289)" fill="#fff"/>
    </g>
    <g id="Group_8" data-name="Group 8" transform="translate(115.71 616.787)">
      <g id="Group_6" data-name="Group 6">
        <path id="Path_35" data-name="Path 35" d="M118.868,832.145a13.28,13.28,0,0,1-3.158-8.651,12.189,12.189,0,0,1,.8-4.76,6.04,6.04,0,0,1,2-2.691A4.35,4.35,0,0,1,121,815.22a2.718,2.718,0,0,1,1.846.6,2.6,2.6,0,0,1,.867,1.312,7.752,7.752,0,0,0-2.046,2.914,10.228,10.228,0,0,0-.89,4.248,7.118,7.118,0,0,0,2.4,5.427q2.4,2.223,8.629,2.224,5.427,0,8.139-1.824a5.417,5.417,0,0,0,2.714-4.626H141.6a5.052,5.052,0,0,1-3.491-1,3.266,3.266,0,0,1-1.09-2.514,4.593,4.593,0,0,1,.445-1.912,5.262,5.262,0,0,0,1.667.957,6.648,6.648,0,0,0,2.424.422h12.277V825.5h-6.138a9.186,9.186,0,0,1-1.512,5,11.014,11.014,0,0,1-4.96,3.936,21.827,21.827,0,0,1-8.918,1.557h-.979Q122.028,835.994,118.868,832.145Zm7.25,11.343a2.739,2.739,0,0,1,0-3.869,2.574,2.574,0,0,1,1.912-.822,2.757,2.757,0,1,1,0,5.514A2.568,2.568,0,0,1,126.118,843.487Zm6.917.022a2.768,2.768,0,0,1,1.934-4.714,2.593,2.593,0,0,1,1.934.8,2.851,2.851,0,0,1,0,3.914,2.588,2.588,0,0,1-1.934.8A2.676,2.676,0,0,1,133.035,843.51Z" transform="translate(-115.71 -796.14)" fill="#fff"/>
        <path id="Path_36" data-name="Path 36" d="M371.1,856.95h6.8V861h-6.8Z" transform="translate(-332.98 -831.641)" fill="#fff"/>
        <path id="Path_37" data-name="Path 37" d="M416.69,856.95h6.8V861h-6.8Z" transform="translate(-371.765 -831.641)" fill="#fff"/>
        <path id="Path_38" data-name="Path 38" d="M477.1,712.7v4.048h-3.158a7.491,7.491,0,0,1-4.181-1.157,5.455,5.455,0,0,1-3.558,1.157H462.29V712.7h2.936a1.679,1.679,0,0,0,1.667-1.022,7,7,0,0,0,.467-2.846v-14.9a5.152,5.152,0,0,0-.645-2.891,4.8,4.8,0,0,0-1.579-1.467,2.733,2.733,0,0,1,1.045-1.424,3.4,3.4,0,0,1,2.246-.757,3.6,3.6,0,0,1,2.869,1.334,5.743,5.743,0,0,1,1.134,3.826v16.413a10.5,10.5,0,0,1-.622,3.736Z" transform="translate(-410.559 -687.39)" fill="#fff"/>
        <path id="Path_39" data-name="Path 39" d="M561.52,722.074h15.834a3,3,0,0,0,2.4-.979,3.744,3.744,0,0,0,.845-2.536,3.369,3.369,0,0,0-1.067-2.646,4.9,4.9,0,0,0-3.336-.957h-4.581a6.653,6.653,0,0,1-5.182-1.979,7.791,7.791,0,0,1-1.8-5.448,7.2,7.2,0,0,1,2.336-5.782q2.335-2,7.451-2,2.624,0,5.427.133a7.067,7.067,0,0,0,2.736-.445,3.633,3.633,0,0,0,1.49-1.022.857.857,0,0,1,.4.422,2.083,2.083,0,0,1,.178.957,4.423,4.423,0,0,1-.957,2.758,3.244,3.244,0,0,1-2.736,1.245l-6.227-.045q-5.026,0-5.026,3.648a3.473,3.473,0,0,0,.912,2.536,3.533,3.533,0,0,0,2.646.934h3.514q8.851,0,8.851,7.829a8.216,8.216,0,0,1-1.669,5.427,5.873,5.873,0,0,1-4.781,2H561.52Z" transform="translate(-494.977 -696.765)" fill="#fff"/>
        <path id="Path_40" data-name="Path 40" d="M783.557,762.362h-4.093v2.491a9.407,9.407,0,0,1-1.6,5.248q-1.6,2.445-5.782,2.446a6.24,6.24,0,0,1-4.426-1.4,4.381,4.381,0,0,1-1.534-3.136,10.448,10.448,0,0,0,1.846.822,6.549,6.549,0,0,0,2.157.378,4.875,4.875,0,0,0,3.046-.934,3.067,3.067,0,0,0,1.223-2.579l.045-3.336-4.358.09q-4.27,0-6.294-2.558t-2.024-8.029a14.857,14.857,0,0,1,1.29-6.894,6.483,6.483,0,0,1,3.291-3.181,13.143,13.143,0,0,1,4.76-.778,12.094,12.094,0,0,1,4.67.757,5.337,5.337,0,0,1,2.736,2.8,14.289,14.289,0,0,1,.957,5.872v7.874h4.093Zm-12.81-4.047H774.4v-9.653a3.421,3.421,0,0,0-1-2.758,3.766,3.766,0,0,0-2.514-.845,3.293,3.293,0,0,0-3.114,1.646,10.387,10.387,0,0,0-.934,4.982Q766.832,758.315,770.747,758.315Z" transform="translate(-665.329 -733.007)" fill="#fff"/>
        <path id="Path_41" data-name="Path 41" d="M923.66,741.8a6.484,6.484,0,0,1,3.291,3.181,14.857,14.857,0,0,1,1.29,6.894q0,5.427-2.024,8.006t-6.25,2.579a9.018,9.018,0,0,1-4.4-.979,7.405,7.405,0,0,1-3.736.89H907.78v-4.048h2.758V750.45a14.27,14.27,0,0,1,.957-5.872,5.321,5.321,0,0,1,2.736-2.8,12.084,12.084,0,0,1,4.67-.757A13.139,13.139,0,0,1,923.66,741.8Zm-1.223,14.434a12.925,12.925,0,0,0,.779-4.538,10.184,10.184,0,0,0-.957-4.982,3.345,3.345,0,0,0-3.136-1.646,3.763,3.763,0,0,0-2.513.845,3.425,3.425,0,0,0-1,2.758v9.653h3.648A3.07,3.07,0,0,0,922.437,756.233Z" transform="translate(-789.554 -733.015)" fill="#fff"/>
      </g>
      <g id="Group_7" data-name="Group 7" transform="translate(0.219 50.093)">
        <path id="Path_42" data-name="Path 42" d="M141.172,1050.175a4.514,4.514,0,0,1-2.108-2.555,14.3,14.3,0,0,1-.615-4.645v-14.367l-9.329,20.71h-.746l-9.7-21.083v21.083H117.18V1024.69h3.545l8.956,19.4,8.769-19.4h3.358v18.285a13.171,13.171,0,0,0,.878,5.373,2.835,2.835,0,0,0,2.669,1.9V1051A8.8,8.8,0,0,1,141.172,1050.175Z" transform="translate(-117.18 -1024.436)" fill="#fff"/>
        <path id="Path_43" data-name="Path 43" d="M320.226,1086.76a7.716,7.716,0,0,1-2.836-3.3,11.519,11.519,0,0,1,0-9.254,7.716,7.716,0,0,1,2.836-3.3,8.6,8.6,0,0,1,8.807,0,7.744,7.744,0,0,1,2.836,3.3,11.519,11.519,0,0,1,0,9.254,7.726,7.726,0,0,1-2.836,3.3,8.6,8.6,0,0,1-8.807,0Zm6.848-1.286a6.544,6.544,0,0,0,1.642-2.761,13.292,13.292,0,0,0,0-7.762,6.554,6.554,0,0,0-1.642-2.761,3.47,3.47,0,0,0-4.89,0,6.539,6.539,0,0,0-1.642,2.761,13.294,13.294,0,0,0,0,7.762,6.529,6.529,0,0,0,1.642,2.761,3.47,3.47,0,0,0,4.89,0Z" transform="translate(-286.681 -1062.719)" fill="#fff"/>
        <path id="Path_44" data-name="Path 44" d="M437.09,1074.353a9.194,9.194,0,0,0-1.7-2.929,3.273,3.273,0,0,0-2.221-.913v-.746c.125,0,.31-.012.56-.037s.5-.037.746-.037a6.3,6.3,0,0,1,3.564,1.027,7.592,7.592,0,0,1,2.594,3.639l3.172,7.836,3.172-8.023a9.73,9.73,0,0,0-1.7-2.779,3.036,3.036,0,0,0-2.033-.878v-.746c.124,0,.31-.012.56-.037s.5-.037.746-.037a6.3,6.3,0,0,1,3.564,1.027,7.592,7.592,0,0,1,2.594,3.639l3.172,7.836,4.851-12.128H460.6l-7.277,17.912h-.746l-4.664-11.568-4.664,11.568H442.5Z" transform="translate(-386.005 -1062.719)" fill="#fff"/>
        <path id="Path_45" data-name="Path 45" d="M634.415,1087.469a5,5,0,0,1-2.108-1.66,4.932,4.932,0,0,1-.878-3.06,4.126,4.126,0,0,1,2.63-4.03,16.816,16.816,0,0,1,6.884-1.194h1.12q0-3.656-1.008-5a3.416,3.416,0,0,0-2.911-1.343,4.588,4.588,0,0,0-2.687.709,3.976,3.976,0,0,0-1.418,2.463h-1.679a10.418,10.418,0,0,1,.149-2,2.677,2.677,0,0,1,.784-1.361,4.342,4.342,0,0,1,2.221-.988,16.911,16.911,0,0,1,3.376-.316,6.753,6.753,0,0,1,4.776,1.624q1.753,1.623,1.754,6.212V1087.6h-1.866l-1.306-1.679h-.187a5.173,5.173,0,0,1-1.978,1.455,7.824,7.824,0,0,1-3.246.6A6.4,6.4,0,0,1,634.415,1087.469Zm6.157-1.772a6.013,6.013,0,0,0,1.493-1.642v-5.038h-1.119a8.027,8.027,0,0,0-4.366,1.027,3.1,3.1,0,0,0-1.6,2.7,3.333,3.333,0,0,0,1.027,2.63,3.645,3.645,0,0,0,2.52.914A3.4,3.4,0,0,0,640.572,1085.7Z" transform="translate(-554.672 -1062.719)" fill="#fff"/>
        <path id="Path_46" data-name="Path 46" d="M748.615,1046.7l-4.478-5.971v8.583h-3.358v-20.15a5.879,5.879,0,0,0-.522-2.818,2.2,2.2,0,0,0-2.09-.914h-.746v-.746h3.358a4.693,4.693,0,0,1,2.072.355,2.064,2.064,0,0,1,.988,1.287,10,10,0,0,1,.3,2.836v11.008l4.664-5.97a7.371,7.371,0,0,1,2.052-1.809,5.615,5.615,0,0,1,2.8-.615h1.12v.933a4.776,4.776,0,0,0-1.94.41,4.151,4.151,0,0,0-1.6,1.269l-4.1,5.224,4.664,5.97a10.853,10.853,0,0,0,2.033,2.127,4.719,4.719,0,0,0,2.072.9v.709a4.482,4.482,0,0,1-1.866.373A6.606,6.606,0,0,1,748.615,1046.7Z" transform="translate(-644.841 -1024.428)" fill="#fff"/>
        <path id="Path_47" data-name="Path 47" d="M863.028,1029.158a5.88,5.88,0,0,0-.522-2.818,2.2,2.2,0,0,0-2.09-.914h-.746v-.746h3.358a4.693,4.693,0,0,1,2.072.355,2.065,2.065,0,0,1,.988,1.287,10,10,0,0,1,.3,2.836v20.15h-3.358Z" transform="translate(-748.844 -1024.428)" fill="#fff"/>
        <path id="Path_48" data-name="Path 48" d="M927.778,1046.772a4.939,4.939,0,0,0,2.945-.824,6.461,6.461,0,0,0,1.994-3.018l.731-2.012-5.854-14.27a4.434,4.434,0,0,0-4.024-2.927v-.731h3.111a4.386,4.386,0,0,1,4.391,2.927l4.172,10.135,4.611-12.7h1.83l-7.135,19.576a8.993,8.993,0,0,1-2.342,3.915,5.174,5.174,0,0,1-3.33,1.024h-1.1v-1.1Z" transform="translate(-803.206 -1022.99)" fill="#fff"/>
      </g>
    </g>
  </g>
</svg>
