<svg xmlns="http://www.w3.org/2000/svg" width="71.115" height="23.072" viewBox="0 0 71.115 23.072">
  <g id="Group_315" data-name="Group 315" transform="translate(0 0)">
    <g id="Group_314" data-name="Group 314" transform="translate(0)">
      <path id="Path_822" data-name="Path 822" d="M-80.635,104.413h-5.8l3.627-22.289h5.8Z" transform="translate(111.464 -81.725)" fill="#004c9b"/>
      <path id="Path_823" data-name="Path 823" d="M-108.269,82.124l-5.532,15.33-.655-3.3h0l-1.953-10.022a2.484,2.484,0,0,0-2.753-2.007h-9.145l-.107.377a21.671,21.671,0,0,1,6.07,2.548l5.042,19.363h6.046l9.233-22.289Z" transform="translate(128.413 -81.725)" fill="#004c9b"/>
      <path id="Path_824" data-name="Path 824" d="M-28.443,104.413h5.328l-4.646-22.289h-4.665a2.666,2.666,0,0,0-2.679,1.661l-8.654,20.628h6.049l1.21-3.31h7.377Zm-6.385-7.884,3.049-8.341,1.715,8.341Z" transform="translate(94.23 -81.725)" fill="#004c9b"/>
      <path id="Path_825" data-name="Path 825" d="M-54.187,87.214l.828-4.787a16.749,16.749,0,0,0-5.219-.972c-2.88,0-9.718,1.259-9.718,7.379,0,5.759,8.026,5.83,8.026,8.854s-7.2,2.483-9.575.576l-.863,5a16.257,16.257,0,0,0,6.551,1.259c3.959,0,9.935-2.051,9.935-7.631,0-5.8-8.1-6.335-8.1-8.854S-56.67,85.845-54.187,87.214Z" transform="translate(105.112 -81.455)" fill="#004c9b"/>
    </g>
    <path id="Path_826" data-name="Path 826" d="M-114.455,94.154l-1.953-10.022a2.484,2.484,0,0,0-2.753-2.007h-9.145l-.107.377a22.491,22.491,0,0,1,8.613,4.324A17.384,17.384,0,0,1-114.455,94.154Z" transform="translate(128.413 -81.725)" fill="#f99410"/>
  </g>
</svg>
