<svg xmlns="http://www.w3.org/2000/svg" width="22.778" height="19" viewBox="0 0 22.778 19">
  <g id="Icon_feather-camera" data-name="Icon feather-camera" transform="translate(-0.5 -3.5)">
    <path id="Path_820" data-name="Path 820" d="M22.278,19.611A1.889,1.889,0,0,1,20.389,21.5h-17A1.889,1.889,0,0,1,1.5,19.611V9.222A1.889,1.889,0,0,1,3.389,7.333H7.167L9.056,4.5h5.667l1.889,2.833h3.778a1.889,1.889,0,0,1,1.889,1.889Z" fill="none" stroke="#fff" stroke-linecap="round" stroke-linejoin="round" stroke-width="2"/>
    <path id="Path_821" data-name="Path 821" d="M19.556,17.278A3.778,3.778,0,1,1,15.778,13.5,3.778,3.778,0,0,1,19.556,17.278Z" transform="translate(-3.889 -3.333)" fill="none" stroke="#fff" stroke-linecap="round" stroke-linejoin="round" stroke-width="2"/>
  </g>
</svg>
