<svg xmlns="http://www.w3.org/2000/svg" width="26.971" height="26.971" viewBox="0 0 26.971 26.971">
  <path id="Icon_awesome-phone-alt" data-name="Icon awesome-phone-alt" d="M26.2,19.059l-5.9-2.529a1.264,1.264,0,0,0-1.475.363l-2.613,3.192A19.526,19.526,0,0,1,6.88,10.752l3.192-2.613a1.261,1.261,0,0,0,.363-1.475L7.907.764A1.273,1.273,0,0,0,6.458.032L.98,1.3A1.264,1.264,0,0,0,0,2.529,24.44,24.44,0,0,0,24.443,26.972a1.264,1.264,0,0,0,1.233-.98l1.264-5.479a1.28,1.28,0,0,0-.738-1.454Z" transform="translate(0 0)" fill="#1be5bf"/>
</svg>
