<svg xmlns="http://www.w3.org/2000/svg" width="24.133" height="28.155" viewBox="0 0 24.133 28.155">
  <g id="lock" transform="translate(-4.5 -2.25)">
    <path id="Path_49" data-name="Path 49" d="M24.611,14.316a4.022,4.022,0,0,1,4.022,4.022v8.044A4.022,4.022,0,0,1,24.611,30.4H8.522A4.022,4.022,0,0,1,4.5,26.383V18.338a4.022,4.022,0,0,1,4.022-4.022V10.294a8.044,8.044,0,0,1,16.088,0ZM16.566,4.931a5.363,5.363,0,0,1,5.363,5.363v4.022H11.2V10.294a5.363,5.363,0,0,1,5.363-5.363ZM24.611,17H8.522a1.341,1.341,0,0,0-1.341,1.341v8.044a1.341,1.341,0,0,0,1.341,1.341H24.611a1.341,1.341,0,0,0,1.341-1.341V18.338A1.341,1.341,0,0,0,24.611,17Z" fill="#1be5bf" fill-rule="evenodd"/>
  </g>
</svg>
